
								<svg  style="pointer-events:none" xmlns="http://www.w3.org/2000/svg" xmlns:xlink="http://www.w3.org/1999/xlink" width="1040" height="790" viewBox="0 0 1040 790" >
									<defs xmlns="http://www.w3.org/2000/svg"/>
									<g xmlns="http://www.w3.org/2000/svg" id="page1" xmlns:ed="https://www.edrawsoft.cn/xml/2017/SVGExtensions/" ed:name="Page-1"><rect y="0" fill="#ffffff" x="0" width="1040" height="790" stroke="#808080"/><g transform="translate(93,154)" id="group1"><path id="shape2" fill="none" d="M0,0L907,0L907,596L0,596L0,0z" stroke="#323232" stroke-width="3"/><path id="shape3" fill="#ffffff" d="M0,0L260,0L260,12.5L247.5,25L0,25L0,0z" fill-rule="evenodd" stroke="#323232" stroke-width="3"/><text xml:space="preserve" style="fill:#191919;font-family:Bahnschrift;font-size:11pt"><tspan y="18.5" x="4">dep Android Application Deplyment</tspan></text></g><g transform="translate(134,209.35)" id="shape4"><path fill="#e2edd7" d="M0,0L262,0L262,511.6L0,511.6L0,0zM0,74.4L262,74.4L0,74.4z" fill-rule="evenodd"/><path fill="none" d="M0,0L262,0L262,511.6L0,511.6L0,0zM0,74.4L262,74.4L0,74.4z" stroke="#323232" stroke-width="3"/><text xml:space="preserve" style="fill:#191919;font-family:Bahnschrift;font-size:14pt"><tspan y="33.2" x="47">&lt;&lt;abdroid application&gt;&gt;</tspan><tspan y="56.2" x="55" style="font-weight:bold">myApplication.apk</tspan></text></g><g transform="translate(547,412.06)" id="group5"><path transform="translate(0,9.56)" id="shape6" fill="#ffffff" d="M0,0L209.4,0L209.4,109.9L0,109.9L0,0z" fill-rule="evenodd" stroke="#323232" stroke-width="3"/><path id="shape7" fill="#ffffff" d="M9.6,0L219,0L209.4,9.6L0,9.6L9.6,0z" fill-rule="evenodd" stroke="#323232" stroke-width="3"/><path transform="translate(209.44,0)" id="shape8" fill="#ffffff" d="M0,9.6L9.6,0L9.6,109.9L0,119.5L0,9.6z" fill-rule="evenodd" stroke="#323232" stroke-width="3"/><text xml:space="preserve" style="fill:#191919;font-family:Bahnschrift;font-size:14pt"><tspan y="60.5" x="8.2">&lt;&lt;executionEnvironment&gt;&gt;</tspan><tspan y="83.5" x="72.7" style="font-weight:bold">Android</tspan></text></g><g transform="translate(170.76,305)" id="group9"><g id="shape10"><path fill="#ececec" d="M0,0L187.2,0L187.2,66.1L0,66.1L0,0z" fill-rule="evenodd" stroke="#323232" stroke-width="3"/><text xml:space="preserve" style="fill:#191919;font-family:Bahnschrift;font-size:14pt"><tspan y="29.5" x="19.6">&lt;&lt;conpiled classes&gt;&gt;</tspan><tspan y="52.5" x="45.1" style="font-weight:bold">classes.dex</tspan></text></g></g><g transform="translate(170.76,412.25)" id="group11"><g id="shape12"><path fill="#ececec" d="M0,0L187.2,0L187.2,66.1L0,66.1L0,0z" fill-rule="evenodd" stroke="#323232" stroke-width="3"/><text xml:space="preserve" style="fill:#191919;font-family:Bahnschrift;font-size:14pt"><tspan y="29.5" x="10.1">&lt;&lt;conpiled resources&gt;&gt;</tspan><tspan y="52.5" x="31.6" style="font-weight:bold">resources.arsc</tspan></text></g></g><g transform="translate(170.76,519)" id="group13"><g id="shape14"><path fill="#ececec" d="M0,0L187.2,0L187.2,66.1L0,66.1L0,0z" fill-rule="evenodd" stroke="#323232" stroke-width="3"/><text xml:space="preserve" style="fill:#191919;font-family:Bahnschrift;font-size:14pt"><tspan y="28.5" x="9.6" style="font-size:13pt">&lt;&lt;uncompiled resources&gt;&gt;</tspan><tspan y="51.5" x="80.1" style="font-weight:bold">res</tspan></text></g></g><g transform="translate(170.76,625.75)" id="group15"><g id="shape16"><path fill="#ececec" d="M0,0L187.2,0L187.2,66.1L0,66.1L0,0z" fill-rule="evenodd" stroke="#323232" stroke-width="3"/><text xml:space="preserve" style="fill:#191919;font-family:Bahnschrift;font-size:14pt"><tspan y="29.5" x="17.6">&lt;&lt;deployment spec&gt;&gt;</tspan><tspan y="52.5" x="8.1" style="font-weight:bold">AndroidManifest.xml</tspan></text></g></g><g transform="translate(846.5,249.91)" id="group17"><path transform="translate(0,6.7)" id="shape18" fill="#ffffff" d="M0,0L106.3,0L106.3,77L0,77L0,0z" fill-rule="evenodd" stroke="#323232" stroke-width="3"/><path id="shape19" fill="#ffffff" d="M6.7,0L113,0L106.3,6.7L0,6.7L6.7,0z" fill-rule="evenodd" stroke="#323232" stroke-width="3"/><path transform="translate(106.3,0)" id="shape20" fill="#ffffff" d="M0,6.7L6.7,0L6.7,77L0,83.7L0,6.7z" fill-rule="evenodd" stroke="#323232" stroke-width="3"/><text xml:space="preserve" style="fill:#191919;font-family:Bahnschrift;font-size:14pt"><tspan y="29.7" x="79.2">0..*</tspan><tspan y="52.7" x="25.2">&lt;&lt;external</tspan><tspan y="75.7" x="31.2">storage&gt;&gt;</tspan></text></g><g transform="matrix(0.87,0.5,-0.5,0.87,693.8,230)" id="group21"><path id="shape22" fill="#434b4f" d="M56.9,107.9L3.2,107.9C1.5,107.9,0,106.5,0,104.7L0,3.2C0,1.5,1.4,0,3.2,0L56.9,0C58.6,0,60.1,1.4,60.1,3.2L60.1,104.7C60.1,106.5,58.6,107.9,56.9,107.9z" fill-rule="evenodd"/><path transform="translate(3.77,12.41)" id="shape23" fill="#9fdffc" d="M0,0L52.6,0L52.6,79.4L0,79.4L0,0z" fill-rule="evenodd"/><path transform="translate(3.89,12.55)" id="shape24" fill="#d7f5ff" d="M0,0L52.3,0L52.3,1.9L0,1.9L0,0z" fill-rule="evenodd"/><path transform="translate(25.12,95.54)" id="shape25" fill="#57696d" d="M9.1,4.5C9.1,7,7,9,4.5,9C2,9,0,7,0,4.5C0,2,2,0,4.5,0C7,0,9.1,2,9.1,4.5z" fill-rule="evenodd"/></g><g transform="translate(427.39,416.08)" id="shape26"><text xml:space="preserve" style="fill:#191919;font-family:Bahnschrift;font-size:14pt"><tspan y="27" x="5.6">&lt;&lt;deploy&gt;&gt;</tspan></text></g><g transform="translate(396,476.94)" id="shape27"><path fill="none" d="M0,0L147.7,-1.1" stroke-dasharray="6,4" stroke="#323232" stroke-width="3"/><path stroke-linecap="round" fill="none" d="M140,-6.5L151,-1.1L140.1,4.4" stroke="#323232" stroke-width="3.33333" stroke-linejoin="round"/></g><path transform="translate(358,658.83)" id="shape28" fill="none" d="M0,0L113,0" stroke="#323232" stroke-width="3"/><path transform="translate(472,660)" id="shape29" fill="none" d="M0,0L-0,-183.6" stroke="#323232" stroke-width="3"/><path transform="translate(736.5,298.13)" id="shape30" fill="none" d="M0,0L110,-1.2" stroke="#323232" stroke-width="3"/><g transform="translate(661.49,412.06)" id="shape31"><path fill="none" d="M0,0L-0.7,-42" stroke="#323232" stroke-width="3"/><path stroke-linecap="round" fill="#323232" d="M-1,-59.1L-5.8,-50.4L-0.7,-42L4.1,-50.6L-1,-59.1" stroke="#323232" stroke-width="1"/></g><g transform="translate(510,249.52)" id="shape32"><text xml:space="preserve" style="fill:#191919;font-family:Bahnschrift;font-size:14pt"><tspan y="34.5" x="9.5">&lt;&lt;mobile device&gt;&gt;</tspan></text></g><g transform="translate(39,38.8)" id="shape33"><text xml:space="preserve" style="fill:#191919;font-family:Bahnschrift;font-size:30pt;font-weight:bold"><tspan y="43.1" x="27.5">Android Application Deployment Diagram</tspan></text></g></g>
								</svg>
							